<svg height="500" preserveAspectRatio="xMidYMid meet" viewBox="0 0 375 374.999991" width="500" xmlns="http://www.w3.org/2000/svg" zoomAndPan="magnify"><g fill="#fff"><path d="m4.640625-3.09375c-2.34375-2.5625-3.515625-5.695312-3.515625-9.40625 0-3.71875 1.171875-6.863281 3.515625-9.4375 2.34375-2.582031 5.328125-3.875 8.953125-3.875 3.320312 0 6.054688 1.046875 8.203125 3.140625v-2.40625h8.65625v25.078125h-8.5625v-2.828125h-.09375c-2.148437 2.375-4.882813 3.5625-8.203125 3.5625-3.625 0-6.609375-1.273437-8.953125-3.828125zm7.359375-13.671875c-1.125 1.105469-1.6875 2.523437-1.6875 4.25 0 1.730469.535156 3.140625 1.609375 4.234375 1.070313 1.09375 2.488281 1.640625 4.25 1.640625 1.695313 0 3.09375-.550781 4.1875-1.65625 1.09375-1.113281 1.640625-2.519531 1.640625-4.21875 0-1.726563-.5625-3.144531-1.6875-4.25-1.125-1.101563-2.507812-1.65625-4.140625-1.65625-1.65625 0-3.046875.554687-4.171875 1.65625zm0 0" transform="translate(78.190905 195.799967)"/><path d="m3.765625-39.046875c1.007813-1.007813 2.210937-1.515625 3.609375-1.515625 1.40625 0 2.613281.507812 3.625 1.515625 1.007812 1.011719 1.515625 2.21875 1.515625 3.625 0 1.398437-.507813 2.601563-1.515625 3.609375-1.011719 1.011719-2.21875 1.515625-3.625 1.515625-1.398438 0-2.601562-.503906-3.609375-1.515625-1.011719-1.007812-1.515625-2.210938-1.515625-3.609375 0-1.40625.503906-2.613281 1.515625-3.625zm-.828125 13.96875v25.078125h8.640625v-25.078125zm0 0" transform="translate(105.896603 195.799967)"/><path d="m2.9375 0v-25.078125h8.640625v3.625h.109375c.0625-.132813.164062-.296875.3125-.484375.144531-.195312.460938-.539062.953125-1.03125.488281-.488281 1.007813-.925781 1.5625-1.3125.550781-.394531 1.265625-.75 2.140625-1.0625.882812-.3125 1.785156-.46875 2.703125-.46875.9375 0 1.863281.132812 2.78125.390625.914063.261719 1.582031.523437 2 .78125l.6875.40625-3.609375 7.328125c-1.085938-.914062-2.585938-1.375-4.5-1.375-1.042969 0-1.9375.230469-2.6875.6875-.75.460938-1.28125 1.015625-1.59375 1.671875-.3125.648437-.539062 1.199219-.671875 1.65625-.125.449219-.1875.804687-.1875 1.0625v13.203125zm0 0" transform="translate(114.983921 195.799967)"/><path d="m2.9375-40.328125h11.671875c5.601563 0 10.394531 1.917969 14.375 5.75 3.976563 3.824219 5.96875 8.621094 5.96875 14.390625 0 5.804688-1.984375 10.621094-5.953125 14.453125-3.960938 3.824219-8.757812 5.734375-14.390625 5.734375h-11.671875zm9.1875 32.109375h1.40625c3.363281 0 6.109375-1.128906 8.234375-3.390625 2.132813-2.257813 3.222656-5.101563 3.265625-8.53125 0-3.414063-1.070312-6.265625-3.203125-8.546875-2.136719-2.28125-4.902344-3.421875-8.296875-3.421875h-1.40625zm0 0" transform="translate(133.649199 195.799967)"/><path d="m28.296875-11.34375h-18.1875c0 1.761719.566406 3.070312 1.703125 3.921875 1.144531.84375 2.390625 1.265625 3.734375 1.265625 1.394531 0 2.5-.1875 3.3125-.5625.820313-.375 1.753906-1.113281 2.796875-2.21875l6.25 3.125c-2.605469 4.367188-6.9375 6.546875-13 6.546875-3.78125 0-7.027344-1.289063-9.734375-3.875-2.699219-2.59375-4.046875-5.710937-4.046875-9.359375 0-3.65625 1.347656-6.785156 4.046875-9.390625 2.707031-2.613281 5.953125-3.921875 9.734375-3.921875 3.976562 0 7.210938 1.152344 9.703125 3.453125 2.488281 2.292969 3.734375 5.574219 3.734375 9.84375 0 .59375-.015625.984375-.046875 1.171875zm-17.9375-4.78125h9.53125c-.199219-1.300781-.714844-2.300781-1.546875-3-.824219-.707031-1.886719-1.0625-3.1875-1.0625-1.4375 0-2.585938.375-3.4375 1.125-.84375.75-1.296875 1.730469-1.359375 2.9375zm0 0" transform="translate(164.042599 195.799967)"/><path d="m28.734375-21.9375c2.34375 2.574219 3.515625 5.71875 3.515625 9.4375 0 3.710938-1.171875 6.84375-3.515625 9.40625-2.34375 2.554688-5.324219 3.828125-8.9375 3.828125-3.324219 0-6.0625-1.1875-8.21875-3.5625h-.09375v2.828125h-8.546875v-42.03125h8.640625v19.359375c2.15625-2.09375 4.894531-3.140625 8.21875-3.140625 3.613281 0 6.59375 1.292969 8.9375 3.875zm-7.28125 13.65625c1.070313-1.09375 1.609375-2.503906 1.609375-4.234375 0-1.726563-.5625-3.144531-1.6875-4.25-1.117188-1.101563-2.507812-1.65625-4.171875-1.65625-1.625 0-3 .554687-4.125 1.65625-1.125 1.105469-1.6875 2.523437-1.6875 4.25 0 1.699219.539063 3.105469 1.625 4.21875 1.09375 1.105469 2.488281 1.65625 4.1875 1.65625 1.757813 0 3.175781-.546875 4.25-1.640625zm0 0" transform="translate(187.838926 195.799967)"/><path d="m2.9375 0v-25.078125h8.640625v3.625h.109375c.0625-.132813.164062-.296875.3125-.484375.144531-.195312.460938-.539062.953125-1.03125.488281-.488281 1.007813-.925781 1.5625-1.3125.550781-.394531 1.265625-.75 2.140625-1.0625.882812-.3125 1.785156-.46875 2.703125-.46875.9375 0 1.863281.132812 2.78125.390625.914063.261719 1.582031.523437 2 .78125l.6875.40625-3.609375 7.328125c-1.085938-.914062-2.585938-1.375-4.5-1.375-1.042969 0-1.9375.230469-2.6875.6875-.75.460938-1.28125 1.015625-1.59375 1.671875-.3125.648437-.539062 1.199219-.671875 1.65625-.125.449219-.1875.804687-.1875 1.0625v13.203125zm0 0" transform="translate(215.544624 195.799967)"/><path d="m3.765625-39.046875c1.007813-1.007813 2.210937-1.515625 3.609375-1.515625 1.40625 0 2.613281.507812 3.625 1.515625 1.007812 1.011719 1.515625 2.21875 1.515625 3.625 0 1.398437-.507813 2.601563-1.515625 3.609375-1.011719 1.011719-2.21875 1.515625-3.625 1.515625-1.398438 0-2.601562-.503906-3.609375-1.515625-1.011719-1.007812-1.515625-2.210938-1.515625-3.609375 0-1.40625.503906-2.613281 1.515625-3.625zm-.828125 13.96875v25.078125h8.640625v-25.078125zm0 0" transform="translate(234.209902 195.799967)"/><path d="m28.296875-11.34375h-18.1875c0 1.761719.566406 3.070312 1.703125 3.921875 1.144531.84375 2.390625 1.265625 3.734375 1.265625 1.394531 0 2.5-.1875 3.3125-.5625.820313-.375 1.753906-1.113281 2.796875-2.21875l6.25 3.125c-2.605469 4.367188-6.9375 6.546875-13 6.546875-3.78125 0-7.027344-1.289063-9.734375-3.875-2.699219-2.59375-4.046875-5.710937-4.046875-9.359375 0-3.65625 1.347656-6.785156 4.046875-9.390625 2.707031-2.613281 5.953125-3.921875 9.734375-3.921875 3.976562 0 7.210938 1.152344 9.703125 3.453125 2.488281 2.292969 3.734375 5.574219 3.734375 9.84375 0 .59375-.015625.984375-.046875 1.171875zm-17.9375-4.78125h9.53125c-.199219-1.300781-.714844-2.300781-1.546875-3-.824219-.707031-1.886719-1.0625-3.1875-1.0625-1.4375 0-2.585938.375-3.4375 1.125-.84375.75-1.296875 1.730469-1.359375 2.9375zm0 0" transform="translate(243.29722 195.799967)"/><path d="m4.40625-25.078125v-5.328125c.03125-3.738281.90625-6.734375 2.625-8.984375 1.726562-2.25 4.125-3.375 7.1875-3.375 1.300781 0 2.546875.1875 3.734375.5625 1.195313.375 2.054687.757813 2.578125 1.140625l.828125.546875-3.03125 6.109375c-.78125-.457031-1.648437-.6875-2.59375-.6875-1.074219 0-1.792969.371094-2.15625 1.109375-.355469.730469-.53125 2.007813-.53125 3.828125v5.078125h5.765625v6.609375h-5.765625v18.46875h-8.640625v-18.46875h-3.625v-6.609375zm0 0" transform="translate(267.093548 195.799967)"/><path d="m8.5-10.453125c1.5625 0 2.890625.546875 3.984375 1.640625 1.09375 1.085938 1.640625 2.40625 1.640625 3.96875 0 1.53125-.546875 2.84375-1.640625 3.9375s-2.421875 1.640625-3.984375 1.640625c-1.53125 0-2.84375-.546875-3.9375-1.640625-1.085938-1.09375-1.625-2.40625-1.625-3.9375 0-1.5625.539062-2.882812 1.625-3.96875 1.09375-1.09375 2.40625-1.640625 3.9375-1.640625zm0 0" transform="translate(279.748172 195.799967)"/><path d="m4.28125-8.234375c.226562 0 .410156.03125.546875.09375v1c-.679687-.050781-1.246094.132813-1.703125.546875-.460938.417969-.6875 1.085938-.6875 2v4.59375h-1.3125v-8.0625h1.3125v1.265625l.71875-1.078125c.351562-.238281.726562-.359375 1.125-.359375zm0 0" transform="translate(124.339399 217.161533)"/><path d="m7.734375-4.25v.25c0 .105469-.011719.226562-.03125.359375h-5.828125c.039062.71875.164062 1.289063.375 1.703125.21875.40625.492188.699219.828125.875.34375.179688.710937.265625 1.109375.265625.519531 0 .972656-.15625 1.359375-.46875.382813-.3125.625-.753906.71875-1.328125h1.359375c-.09375.648438-.320312 1.179688-.671875 1.59375-.34375.417969-.765625.726562-1.265625.921875-.492188.195313-1.011719.296875-1.5625.296875-.699219 0-1.328125-.15625-1.890625-.46875-.554687-.3125-.992187-.773438-1.3125-1.390625-.3125-.625-.46875-1.410156-.46875-2.359375 0-.875.164063-1.628906.5-2.265625.332031-.632813.785156-1.125 1.359375-1.46875.582031-.351563 1.238281-.53125 1.96875-.53125.738281 0 1.363281.171875 1.875.515625.519531.335938.910156.804688 1.171875 1.40625.269531.605469.40625 1.304688.40625 2.09375zm-3.484375-3.015625c-.636719 0-1.171875.226563-1.609375.671875-.429687.449219-.679687 1.101562-.75 1.953125h4.53125c-.0625-.84375-.277344-1.488281-.640625-1.9375-.355469-.457031-.867188-.6875-1.53125-.6875zm0 0" transform="translate(127.606092 217.161533)"/><path d="m5.171875-8.265625c.789063 0 1.457031.183594 2 .546875.539063.355469.953125.839844 1.234375 1.453125.28125.617187.421875 1.320313.421875 2.109375 0 1-.183594 1.824219-.546875 2.46875-.367188.636719-.851562 1.117188-1.453125 1.4375-.59375.3125-1.242187.46875-1.9375.46875-.335937 0-.6875-.054688-1.0625-.15625-.375-.09375-.664063-.21875-.859375-.375l-.53125-.796875v4.09375h-1.3125v-11.046875h1.3125v1.296875l.609375-.859375c.226563-.195312.535156-.351562.921875-.46875.394531-.113281.796875-.171875 1.203125-.171875zm-.28125 7.46875c.707031 0 1.300781-.269531 1.78125-.8125.488281-.539063.734375-1.335937.734375-2.390625 0-.601562-.09375-1.15625-.28125-1.65625-.179688-.5-.449219-.890625-.8125-1.171875-.355469-.289063-.804688-.4375-1.34375-.4375-.449219 0-.867188.105469-1.25.3125-.386719.210937-.699219.542969-.9375 1-.230469.460937-.34375 1.074219-.34375 1.84375v.453125c0 .6875.117188 1.246094.359375 1.671875.25.417969.5625.71875.9375.90625.382813.1875.769531.28125 1.15625.28125zm0 0" transform="translate(134.201413 217.161533)"/><path d="m4.453125-8.265625c.914063 0 1.671875.199219 2.265625.59375.59375.386719 1.03125.902344 1.3125 1.546875.28125.636719.421875 1.335938.421875 2.09375 0 .75-.140625 1.453125-.421875 2.109375-.28125.648437-.71875 1.167969-1.3125 1.5625-.59375.3828125-1.351562.578125-2.265625.578125-.90625 0-1.65625-.1953125-2.25-.578125-.585937-.394531-1.023437-.914063-1.3125-1.5625-.292969-.65625-.4375-1.359375-.4375-2.109375 0-.757812.144531-1.457031.4375-2.09375.289063-.644531.726563-1.160156 1.3125-1.546875.59375-.394531 1.34375-.59375 2.25-.59375zm0 7.46875c.550781 0 1.015625-.132813 1.390625-.40625.382812-.28125.675781-.664063.875-1.15625.207031-.488281.3125-1.046875.3125-1.671875 0-.945312-.230469-1.722656-.6875-2.328125-.449219-.601563-1.078125-.90625-1.890625-.90625s-1.445313.304687-1.890625.90625c-.449219.605469-.671875 1.382813-.671875 2.328125 0 .625.097656 1.183594.296875 1.671875.207031.492187.5.875.875 1.15625.382812.273437.847656.40625 1.390625.40625zm0 0" transform="translate(141.739075 217.161533)"/><path d="m4.28125-8.234375c.226562 0 .410156.03125.546875.09375v1c-.679687-.050781-1.246094.132813-1.703125.546875-.460938.417969-.6875 1.085938-.6875 2v4.59375h-1.3125v-8.0625h1.3125v1.265625l.71875-1.078125c.351562-.238281.726562-.359375 1.125-.359375zm0 0" transform="translate(148.896759 217.161533)"/><path d="m2.6875-7v4.640625.328125c0 .085938.003906.183594.015625.296875.03125.386719.144531.636719.34375.75.195313.105469.550781.132813 1.0625.078125v.953125c-.199219.03125-.390625.0507812-.578125.0625-.179688.007813-.355469.015625-.53125.015625-.5 0-.886719-.109375-1.15625-.328125-.261719-.226563-.40625-.59375-.4375-1.09375-.011719-.101563-.015625-.238281-.015625-.40625 0-.175781 0-.375 0-.59375v-4.703125h-1.09375v-1h1.09375v-1.859375h1.296875v1.859375h1.515625v1zm0 0" transform="translate(152.163452 217.161533)"/><path d="m1.78125-10.703125c.226562 0 .421875.085937.578125.25.164063.15625.25.355469.25.59375 0 .230469-.085937.429687-.25.59375-.15625.15625-.351563.234375-.578125.234375-.242188 0-.445312-.078125-.609375-.234375-.15625-.164063-.234375-.363281-.234375-.59375 0-.238281.078125-.4375.234375-.59375.164063-.164063.367187-.25.609375-.25zm.65625 10.703125h-1.3125v-8.0625h1.3125zm0 0" transform="translate(155.17176 217.161533)"/><path d="m7.90625-5.90625c.019531.199219.03125.398438.03125.59375v.78125 4.53125h-1.3125v-4.4375c0-.207031 0-.398438 0-.578125 0-.1875-.011719-.378906-.03125-.578125-.042969-.476562-.203125-.867188-.484375-1.171875-.273437-.3125-.71875-.46875-1.34375-.46875-.417969 0-.804687.121094-1.15625.359375-.355469.230469-.640625.617188-.859375 1.15625-.210938.53125-.3125 1.257812-.3125 2.171875v3.546875h-1.3125v-8.0625h1.3125v1.390625l.5-.9375c.34375-.257813.675781-.429687 1-.515625.320312-.09375.6875-.140625 1.09375-.140625.882812 0 1.566406.214844 2.046875.640625.488281.429688.765625 1 .828125 1.71875zm0 0" transform="translate(157.040134 217.161533)"/><path d="m8.171875-8.0625v6.09375.796875c0 .28125-.007813.539063-.015625.765625-.042969 1.175781-.402344 2.066406-1.078125 2.671875-.679687.613281-1.601563.921875-2.765625.921875-1.148438 0-2.011719-.230469-2.59375-.6875-.585938-.460938-.917969-1.117188-1-1.96875l-.015625-.15625h1.3125l.015625.140625c.050781.5.269531.898437.65625 1.203125.394531.3125.9375.46875 1.625.46875.800781 0 1.414062-.21875 1.84375-.65625.425781-.4375.65625-1.042969.6875-1.8125.007812-.1875.015625-.347656.015625-.484375 0-.132813 0-.265625 0-.390625v-.140625l-.609375.875c-.230469.1875-.539062.3398438-.921875.453125-.386719.125-.789063.1875-1.203125.1875-.78125 0-1.449219-.1796875-2-.53125-.542969-.363281-.960938-.859375-1.25-1.484375-.28125-.625-.421875-1.328125-.421875-2.109375 0-.988281.179687-1.804688.546875-2.453125.363281-.644531.847656-1.125 1.453125-1.4375.601563-.3125 1.25-.46875 1.9375-.46875.332031 0 .6875.046875 1.0625.140625.375.085938.664063.214844.875.390625l.53125.78125v-1.109375zm-3.859375 7.265625c.445312 0 .863281-.097656 1.25-.296875.382812-.207031.695312-.539062.9375-1 .238281-.46875.359375-1.085938.359375-1.859375v-.4375c0-.695313-.125-1.253906-.375-1.671875-.25-.425781-.570313-.734375-.953125-.921875-.375-.1875-.757812-.28125-1.140625-.28125-.710937 0-1.304687.273437-1.78125.8125-.480469.542969-.71875 1.339844-.71875 2.390625 0 .617188.085937 1.167969.265625 1.65625.1875.492188.457031.882812.8125 1.171875.363281.292969.8125.4375 1.34375.4375zm0 0" transform="translate(164.304213 217.161533)"/><path d="m11.84375-6.3125c.03125.210938.050781.414062.0625.609375.007812.199219.015625.460937.015625.78125v4.921875h-1.3125v-4.3125c0-.6875-.023437-1.210938-.0625-1.578125-.0625-.445313-.234375-.78125-.515625-1-.273438-.226563-.636719-.34375-1.09375-.34375-.335938 0-.636719.105469-.90625.3125-.273438.199219-.484375.53125-.640625 1-.148437.46875-.21875 1.117187-.21875 1.9375v3.984375h-1.296875v-4.3125c0-.6875-.023438-1.210938-.0625-1.578125-.0625-.445313-.234375-.78125-.515625-1-.28125-.226563-.648437-.34375-1.09375-.34375-.34375 0-.652344.105469-.921875.3125-.261719.199219-.46875.53125-.625 1-.148438.46875-.21875 1.117187-.21875 1.9375v3.984375h-1.3125v-8.0625h1.3125v1.171875l.515625-.90625c.195313-.175781.441406-.296875.734375-.359375.289062-.070312.613281-.109375.96875-.109375.613281 0 1.113281.140625 1.5.421875.394531.273438.671875.632812.828125 1.078125l.703125-1.03125c.207031-.175781.453125-.296875.734375-.359375.289063-.070312.613281-.109375.96875-.109375.71875 0 1.28125.1875 1.6875.5625.414063.375.671875.839844.765625 1.390625zm0 0" transform="translate(176.511271 217.161533)"/><path d="m5.75 0-.140625-1.15625-.4375.875c-.273437.1875-.585937.3164062-.9375.390625-.34375.070313-.710937.109375-1.09375.109375-.480469 0-.917969-.089844-1.3125-.265625-.386719-.175781-.699219-.4375-.9375-.78125-.230469-.34375-.34375-.757813-.34375-1.25 0-.914063.359375-1.601563 1.078125-2.0625.71875-.46875 1.867188-.703125 3.453125-.703125h.515625v-.21875c0-.175781 0-.34375 0-.5 0-.164062-.011719-.320312-.03125-.46875-.03125-.375-.167969-.671875-.40625-.890625-.242188-.226563-.625-.34375-1.15625-.34375-.554688 0-.96875.148437-1.25.4375-.273438.28125-.433594.703125-.484375 1.265625h-1.375c.0625-.863281.367187-1.53125.921875-2 .5625-.46875 1.289062-.703125 2.1875-.703125.957031 0 1.65625.195313 2.09375.578125.4375.375.691406.890625.765625 1.546875.019531.15625.03125.328125.03125.515625.007813.1875.015625.371094.015625.546875v3.03125c0 .304687.007812.609375.03125.921875.019531.304688.054688.679688.109375 1.125zm-2.15625-.796875c.601562 0 1.085938-.191406 1.453125-.578125.363281-.394531.546875-.957031.546875-1.6875v-.8125c-1.105469-.082031-1.984375.007812-2.640625.265625-.65625.261719-.984375.734375-.984375 1.421875 0 .492188.144531.84375.4375 1.0625.289062.21875.6875.328125 1.1875.328125zm0 0" transform="translate(187.757539 217.161533)"/><path d="m8.171875-11.171875v11.171875h-1.3125v-1.296875l-.609375.875c-.230469.1875-.539062.3398438-.921875.453125-.386719.125-.789063.1875-1.203125.1875-.78125 0-1.449219-.1796875-2-.53125-.542969-.363281-.960938-.859375-1.25-1.484375-.28125-.625-.421875-1.328125-.421875-2.109375 0-.988281.179687-1.804688.546875-2.453125.363281-.644531.847656-1.125 1.453125-1.4375.601563-.3125 1.25-.46875 1.9375-.46875.332031 0 .6875.046875 1.0625.140625.375.085938.664063.214844.875.390625l.53125.78125v-4.21875zm-3.859375 10.375c.445312 0 .863281-.097656 1.25-.296875.382812-.207031.695312-.539062.9375-1 .238281-.46875.359375-1.085938.359375-1.859375v-.4375c0-.695313-.125-1.253906-.375-1.671875-.25-.425781-.570313-.734375-.953125-.921875-.375-.1875-.757812-.28125-1.140625-.28125-.710937 0-1.304687.273437-1.78125.8125-.480469.542969-.71875 1.339844-.71875 2.390625 0 .617188.085937 1.167969.265625 1.65625.1875.492188.457031.882812.8125 1.171875.363281.292969.8125.4375 1.34375.4375zm0 0" transform="translate(194.079266 217.161533)"/><path d="m7.734375-4.25v.25c0 .105469-.011719.226562-.03125.359375h-5.828125c.039062.71875.164062 1.289063.375 1.703125.21875.40625.492188.699219.828125.875.34375.179688.710937.265625 1.109375.265625.519531 0 .972656-.15625 1.359375-.46875.382813-.3125.625-.753906.71875-1.328125h1.359375c-.09375.648438-.320312 1.179688-.671875 1.59375-.34375.417969-.765625.726562-1.265625.921875-.492188.195313-1.011719.296875-1.5625.296875-.699219 0-1.328125-.15625-1.890625-.46875-.554687-.3125-.992187-.773438-1.3125-1.390625-.3125-.625-.46875-1.410156-.46875-2.359375 0-.875.164063-1.628906.5-2.265625.332031-.632813.785156-1.125 1.359375-1.46875.582031-.351563 1.238281-.53125 1.96875-.53125.738281 0 1.363281.171875 1.875.515625.519531.335938.910156.804688 1.171875 1.40625.269531.605469.40625 1.304688.40625 2.09375zm-3.484375-3.015625c-.636719 0-1.171875.226563-1.609375.671875-.429687.449219-.679687 1.101562-.75 1.953125h4.53125c-.0625-.84375-.277344-1.488281-.640625-1.9375-.355469-.457031-.867188-.6875-1.53125-.6875zm0 0" transform="translate(201.677731 217.161533)"/><path d="m3.46875-8.265625c.894531 0 1.59375.234375 2.09375.703125.5.460938.789062 1.058594.875 1.796875h-1.375c-.09375-.476563-.28125-.847656-.5625-1.109375-.28125-.257812-.664062-.390625-1.140625-.390625-.460937 0-.796875.117187-1.015625.34375-.21875.21875-.328125.507813-.328125.859375 0 .40625.15625.710938.46875.90625.320313.199219.753906.367188 1.296875.5.9375.25 1.625.574219 2.0625.96875.445312.398438.671875.9375.671875 1.625 0 .5-.132813.921875-.390625 1.265625-.261719.34375-.621094.601563-1.078125.765625-.449219.164062-.953125.25-1.515625.25-.835938 0-1.542969-.203125-2.125-.609375-.574219-.40625-.921875-1.066406-1.046875-1.984375h1.375c.113281.59375.335937 1.007812.671875 1.234375.34375.230469.75.34375 1.21875.34375.425781 0 .789062-.097656 1.09375-.296875.3125-.195312.46875-.488281.46875-.875 0-.375-.152344-.675781-.453125-.90625-.292969-.238281-.777344-.453125-1.453125-.640625-.480469-.125-.917969-.28125-1.3125-.46875-.386719-.195313-.699219-.453125-.9375-.765625-.230469-.3125-.34375-.695312-.34375-1.15625 0-.75.253906-1.328125.765625-1.734375.507813-.414063 1.179687-.625 2.015625-.625zm0 0" transform="translate(214.421424 217.161533)"/><path d="m1.78125-10.703125c.226562 0 .421875.085937.578125.25.164063.15625.25.355469.25.59375 0 .230469-.085937.429687-.25.59375-.15625.15625-.351563.234375-.578125.234375-.242188 0-.445312-.078125-.609375-.234375-.15625-.164063-.234375-.363281-.234375-.59375 0-.238281.078125-.4375.234375-.59375.164063-.164063.367187-.25.609375-.25zm.65625 10.703125h-1.3125v-8.0625h1.3125zm0 0" transform="translate(219.64881 217.161533)"/><path d="m11.84375-6.3125c.03125.210938.050781.414062.0625.609375.007812.199219.015625.460937.015625.78125v4.921875h-1.3125v-4.3125c0-.6875-.023437-1.210938-.0625-1.578125-.0625-.445313-.234375-.78125-.515625-1-.273438-.226563-.636719-.34375-1.09375-.34375-.335938 0-.636719.105469-.90625.3125-.273438.199219-.484375.53125-.640625 1-.148437.46875-.21875 1.117187-.21875 1.9375v3.984375h-1.296875v-4.3125c0-.6875-.023438-1.210938-.0625-1.578125-.0625-.445313-.234375-.78125-.515625-1-.28125-.226563-.648437-.34375-1.09375-.34375-.34375 0-.652344.105469-.921875.3125-.261719.199219-.46875.53125-.625 1-.148438.46875-.21875 1.117187-.21875 1.9375v3.984375h-1.3125v-8.0625h1.3125v1.171875l.515625-.90625c.195313-.175781.441406-.296875.734375-.359375.289062-.070312.613281-.109375.96875-.109375.613281 0 1.113281.140625 1.5.421875.394531.273438.671875.632812.828125 1.078125l.703125-1.03125c.207031-.175781.453125-.296875.734375-.359375.289063-.070312.613281-.109375.96875-.109375.71875 0 1.28125.1875 1.6875.5625.414063.375.671875.839844.765625 1.390625zm0 0" transform="translate(221.517184 217.161533)"/><path d="m5.171875-8.265625c.789063 0 1.457031.183594 2 .546875.539063.355469.953125.839844 1.234375 1.453125.28125.617187.421875 1.320313.421875 2.109375 0 1-.183594 1.824219-.546875 2.46875-.367188.636719-.851562 1.117188-1.453125 1.4375-.59375.3125-1.242187.46875-1.9375.46875-.335937 0-.6875-.054688-1.0625-.15625-.375-.09375-.664063-.21875-.859375-.375l-.53125-.796875v4.09375h-1.3125v-11.046875h1.3125v1.296875l.609375-.859375c.226563-.195312.535156-.351562.921875-.46875.394531-.113281.796875-.171875 1.203125-.171875zm-.28125 7.46875c.707031 0 1.300781-.269531 1.78125-.8125.488281-.539063.734375-1.335937.734375-2.390625 0-.601562-.09375-1.15625-.28125-1.65625-.179688-.5-.449219-.890625-.8125-1.171875-.355469-.289063-.804688-.4375-1.34375-.4375-.449219 0-.867188.105469-1.25.3125-.386719.210937-.699219.542969-.9375 1-.230469.460937-.34375 1.074219-.34375 1.84375v.453125c0 .6875.117188 1.246094.359375 1.671875.25.417969.5625.71875.9375.90625.382813.1875.769531.28125 1.15625.28125zm0 0" transform="translate(232.763453 217.161533)"/><path d="m2.375-11.171875v8.859375.375c0 .125.003906.257812.015625.390625.019531.25.097656.429687.234375.53125.144531.09375.394531.121094.75.078125v.9375c-.148438.0195312-.304688.0351562-.46875.046875-.15625.0078125-.308594.015625-.453125.015625-.375 0-.695313-.0820312-.953125-.25-.261719-.164062-.402344-.503906-.421875-1.015625-.011719-.132813-.015625-.289063-.015625-.46875 0-.175781 0-.375 0-.59375v-8.90625zm0 0" transform="translate(240.301115 217.161533)"/><path d="m7.734375-4.25v.25c0 .105469-.011719.226562-.03125.359375h-5.828125c.039062.71875.164062 1.289063.375 1.703125.21875.40625.492188.699219.828125.875.34375.179688.710937.265625 1.109375.265625.519531 0 .972656-.15625 1.359375-.46875.382813-.3125.625-.753906.71875-1.328125h1.359375c-.09375.648438-.320312 1.179688-.671875 1.59375-.34375.417969-.765625.726562-1.265625.921875-.492188.195313-1.011719.296875-1.5625.296875-.699219 0-1.328125-.15625-1.890625-.46875-.554687-.3125-.992187-.773438-1.3125-1.390625-.3125-.625-.46875-1.410156-.46875-2.359375 0-.875.164063-1.628906.5-2.265625.332031-.632813.785156-1.125 1.359375-1.46875.582031-.351563 1.238281-.53125 1.96875-.53125.738281 0 1.363281.171875 1.875.515625.519531.335938.910156.804688 1.171875 1.40625.269531.605469.40625 1.304688.40625 2.09375zm-3.484375-3.015625c-.636719 0-1.171875.226563-1.609375.671875-.429687.449219-.679687 1.101562-.75 1.953125h4.53125c-.0625-.84375-.277344-1.488281-.640625-1.9375-.355469-.457031-.867188-.6875-1.53125-.6875zm0 0" transform="translate(242.30628 217.161533)"/></g></svg>